<svg width="16.000000" height="16.000000" viewBox="0 0 16 16" fill="none" xmlns="http://www.w3.org/2000/svg" xmlns:xlink="http://www.w3.org/1999/xlink">
	<desc>
			Created with Pixso.
	</desc>
	<defs/>
	<mask id="mask1019_32" mask-type="alpha" maskUnits="userSpaceOnUse" x="0.000000" y="0.000000" width="16.000000" height="16.000000">
		<rect id="Bounding box" width="16.000000" height="16.000000" fill="#D9D9D9" fill-opacity="1.000000"/>
	</mask>
	<g mask="url(#mask1019_32)">
		<path id="border_color" d="M1.33 16L1.33 13.33L14.66 13.33L14.66 16L1.33 16ZM4 10.66L4.93 10.66L10.13 5.48L9.18 4.53L4 9.73L4 10.66ZM2.66 12L2.66 9.16L10.13 1.71C10.25 1.59 10.39 1.5 10.55 1.43C10.72 1.36 10.88 1.33 11.06 1.33C11.24 1.33 11.41 1.36 11.58 1.43C11.75 1.5 11.9 1.6 12.03 1.73L12.95 2.66C13.08 2.78 13.18 2.93 13.24 3.1C13.3 3.26 13.33 3.43 13.33 3.61C13.33 3.78 13.3 3.94 13.24 4.1C13.18 4.27 13.08 4.41 12.95 4.55L5.5 12L2.66 12Z" fill="#0B3C32" fill-opacity="1.000000" fill-rule="nonzero"/>
	</g>
</svg>
