<svg width="16.000000" height="16.000000" viewBox="0 0 16 16" fill="none" xmlns="http://www.w3.org/2000/svg" xmlns:xlink="http://www.w3.org/1999/xlink">
    <desc>
        Created with Pixso.
    </desc>
    <defs/>
    <mask id="mask911_44" mask-type="alpha" maskUnits="userSpaceOnUse" x="0.000000" y="0.000000" width="16.000000" height="16.000000">
        <rect id="Bounding box" width="16.000000" height="16.000000" fill="#D9D9D9" fill-opacity="1.000000"/>
    </mask>
    <g mask="url(#mask911_44)">
        <path id="search" d="M13.06 14L8.86 9.79C8.53 10.06 8.15 10.27 7.71 10.43C7.28 10.58 6.82 10.66 6.33 10.66C5.12 10.66 4.09 10.24 3.25 9.4C2.41 8.56 2 7.54 2 6.33C2 5.12 2.41 4.09 3.25 3.25C4.09 2.41 5.12 2 6.33 2C7.54 2 8.56 2.41 9.4 3.25C10.24 4.09 10.66 5.12 10.66 6.33C10.66 6.82 10.58 7.28 10.43 7.71C10.27 8.14 10.06 8.53 9.8 8.86L14 13.06L13.06 14ZM6.33 9.33C7.16 9.33 7.87 9.04 8.45 8.45C9.04 7.87 9.33 7.16 9.33 6.33C9.33 5.5 9.04 4.79 8.45 4.2C7.87 3.62 7.16 3.33 6.33 3.33C5.5 3.33 4.79 3.62 4.2 4.2C3.62 4.79 3.33 5.5 3.33 6.33C3.33 7.16 3.62 7.87 4.2 8.45C4.79 9.04 5.5 9.33 6.33 9.33Z" fill="#0B3C32" fill-opacity="1.000000" fill-rule="nonzero"/>
    </g>
</svg>
